<svg xmlns="http://www.w3.org/2000/svg" viewBox="0 0 640 640" role="img" aria-label="">
  <!-- Simple retro mascot daisy (SVG-only, transparent background). -->
  <defs>
    <filter id="shadow" x="-20%" y="-20%" width="140%" height="140%">
      <feDropShadow dx="10" dy="10" stdDeviation="0" flood-color="#2b2a29" flood-opacity=".18"/>
    </filter>
    <filter id="grain" x="-10%" y="-10%" width="120%" height="120%">
      <feTurbulence type="fractalNoise" baseFrequency=".8" numOctaves="2" stitchTiles="stitch" result="noise"/>
      <feColorMatrix in="noise" type="matrix"
        values="0 0 0 0 0
                0 0 0 0 0
                0 0 0 0 0
                0 0 0 .12 0" result="alpha"/>
      <feComposite in="alpha" in2="SourceGraphic" operator="in" result="grainMask"/>
      <feBlend in="SourceGraphic" in2="grainMask" mode="multiply"/>
    </filter>
  </defs>

  <g filter="url(#shadow)">
    <!-- Petals -->
    <g fill="#f6efe3" stroke="#2b2a29" stroke-width="14" stroke-linecap="round" stroke-linejoin="round">
      <path d="M320 84c40 0 76 32 76 72 0 34-22 64-54 72-8 2-14 9-14 17 0 8 6 15 14 17 32 8 54 38 54 72 0 40-36 72-76 72-40 0-76-32-76-72 0-34 22-64 54-72 8-2 14-9 14-17 0-8-6-15-14-17-32-8-54-38-54-72 0-40 36-72 76-72z" transform="rotate(-18 320 320) translate(0 -44)"/>
      <path d="M320 84c40 0 76 32 76 72 0 34-22 64-54 72-8 2-14 9-14 17 0 8 6 15 14 17 32 8 54 38 54 72 0 40-36 72-76 72-40 0-76-32-76-72 0-34 22-64 54-72 8-2 14-9 14-17 0-8-6-15-14-17-32-8-54-38-54-72 0-40 36-72 76-72z" transform="rotate(18 320 320) translate(0 -44)"/>
      <path d="M320 84c40 0 76 32 76 72 0 34-22 64-54 72-8 2-14 9-14 17 0 8 6 15 14 17 32 8 54 38 54 72 0 40-36 72-76 72-40 0-76-32-76-72 0-34 22-64 54-72 8-2 14-9 14-17 0-8-6-15-14-17-32-8-54-38-54-72 0-40 36-72 76-72z" transform="rotate(54 320 320) translate(0 -44)"/>
      <path d="M320 84c40 0 76 32 76 72 0 34-22 64-54 72-8 2-14 9-14 17 0 8 6 15 14 17 32 8 54 38 54 72 0 40-36 72-76 72-40 0-76-32-76-72 0-34 22-64 54-72 8-2 14-9 14-17 0-8-6-15-14-17-32-8-54-38-54-72 0-40 36-72 76-72z" transform="rotate(90 320 320) translate(0 -44)"/>
      <path d="M320 84c40 0 76 32 76 72 0 34-22 64-54 72-8 2-14 9-14 17 0 8 6 15 14 17 32 8 54 38 54 72 0 40-36 72-76 72-40 0-76-32-76-72 0-34 22-64 54-72 8-2 14-9 14-17 0-8-6-15-14-17-32-8-54-38-54-72 0-40 36-72 76-72z" transform="rotate(126 320 320) translate(0 -44)"/>
    </g>

    <!-- Face -->
    <g filter="url(#grain)">
      <circle cx="320" cy="268" r="110" fill="#f2c14e" stroke="#2b2a29" stroke-width="14"/>
      <ellipse cx="286" cy="255" rx="26" ry="36" fill="#2b2a29"/>
      <ellipse cx="356" cy="255" rx="26" ry="36" fill="#2b2a29"/>
      <circle cx="278" cy="246" r="7" fill="#f6efe3"/>
      <circle cx="348" cy="246" r="7" fill="#f6efe3"/>
      <path d="M296 304c20 18 48 18 68 0" fill="none" stroke="#2b2a29" stroke-width="14" stroke-linecap="round"/>
    </g>

    <!-- Stem + arms -->
    <g fill="#7ea05a" stroke="#2b2a29" stroke-width="14" stroke-linecap="round" stroke-linejoin="round">
      <path d="M308 350c20 38 26 78 18 132-6 38-16 80-14 110h38c-2-34 8-74 14-112 10-62 2-120-24-170z"/>
      <!-- Left arm -->
      <path d="M220 360c-34 12-64 36-80 68-10 20-10 42 4 58 16 18 44 18 60 2 10-10 10-26 0-34-12-10-20-2-30-12-10-10-4-24 6-34 16-18 44-34 68-42z"/>
      <!-- Right arm -->
      <path d="M418 360c34 12 64 36 80 68 10 20 10 42-4 58-16 18-44 18-60 2-10-10-10-26 0-34 12-10 20-2 30-12 10-10 4-24-6-34-16-18-44-34-68-42z"/>
      <!-- Leaves -->
      <path d="M216 500c46-12 74-44 96-82-52-8-108 14-142 56-12 16-6 28 46 26z" fill="#2f7f55"/>
      <path d="M440 520c-42-8-72-34-92-70 52-10 108 8 140 44 16 18 12 30-48 26z" fill="#2f7f55"/>
    </g>

    <!-- Shoes -->
    <g>
      <path d="M240 604c34-22 64-30 92-30 26 0 54 6 88 20l-18 38c-26-10-52-16-74-16-20 0-42 6-70 18z" fill="#1f6fb2" stroke="#2b2a29" stroke-width="14" stroke-linejoin="round"/>
      <path d="M232 600c36 8 74 12 112 12" fill="none" stroke="#f6efe3" stroke-width="10" stroke-linecap="round"/>
      <path d="M360 604c34-22 64-30 92-30 26 0 54 6 88 20l-18 38c-26-10-52-16-74-16-20 0-42 6-70 18z" fill="#1f6fb2" stroke="#2b2a29" stroke-width="14" stroke-linejoin="round"/>
      <path d="M352 600c36 8 74 12 112 12" fill="none" stroke="#f6efe3" stroke-width="10" stroke-linecap="round"/>
      <ellipse cx="426" cy="636" rx="170" ry="18" fill="#2b2a29" opacity=".12"/>
    </g>
  </g>
</svg>

