<svg xmlns="http://www.w3.org/2000/svg" viewBox="0 0 512 512" role="img" aria-label="">
  <defs>
    <filter id="ds" x="-20%" y="-20%" width="140%" height="140%">
      <feDropShadow dx="0" dy="10" stdDeviation="10" flood-color="#000000" flood-opacity="0.35"/>
    </filter>
  </defs>
  <g filter="url(#ds)">
    <!-- White sticker outline -->
    <path d="M105 456c-22 0-39-17-39-39V240c0-30 11-58 31-78l74-74c20-20 48-31 78-31h58c27 0 52 10 71 28l61 57c22 21 35 50 35 81v194c0 22-17 39-39 39H105z" fill="#ffffff"/>
    <!-- Dark outline stroke -->
    <path d="M117 442c-18 0-33-15-33-33V242c0-26 9-49 27-67l72-72c18-18 41-27 67-27h58c23 0 44 8 60 24l59 55c19 18 30 43 30 69v185c0 18-15 33-33 33H117z" fill="#d8d8d8"/>
    <path d="M117 436h278c14 0 25-11 25-25V226c0-23-9-45-25-60l-59-55c-14-13-32-20-52-20h-58c-23 0-45 9-60 25l-72 72c-15 15-24 36-24 58v163c0 14 11 25 25 25z" fill="#dcd6d6"/>

    <!-- Face patches -->
    <path d="M118 188c14-17 30-33 50-47 43-29 102-39 155-24 26 7 48 20 67 40 9 10 16 21 22 33 5 12 10 25 11 38 2 18-4 33-18 45-17 14-43 22-72 24-37 2-73-8-110-7-34 1-68 14-96 4-19-7-29-23-27-45 1-23 7-43 18-61z" fill="#4b4b4d"/>
    <path d="M192 118c-12 7-23 16-33 26-12 12-22 26-30 42-8 16-13 33-15 50-1 14 3 25 15 31 11 6 25 5 38 3 33-6 64-18 98-18 31 0 62 11 94 10 23-1 46-7 61-18 10-8 14-17 12-30-2-14-7-27-15-39-13-20-33-36-58-44-42-13-90-5-127 16z" fill="#e9e6e6"/>

    <!-- Ears -->
    <path d="M148 120c-5-40 4-71 28-90 19-15 44-10 57 6 8 11 10 24 9 38-1 19-6 36-15 54-11 21-28 31-51 31-17 0-26-10-28-39z" fill="#4b4b4d"/>
    <path d="M364 126c-7-20-15-39-26-57-8-14-18-26-31-35-16-11-37-10-49 2-11 11-13 28-9 44 5 20 16 38 29 54 11 14 26 23 44 23 19 0 32-9 42-31z" fill="#4b4b4d"/>
    <path d="M171 58c-1-9 1-17 7-22 7-6 17-6 24 0 6 6 8 14 8 22 0 11-3 22-8 33-6 12-14 17-26 17-10 0-15-6-16-18z" fill="#f19aa2"/>
    <path d="M324 62c-2-8 0-16 6-22 6-6 15-7 22-3 7 4 11 12 14 19 4 10 7 20 9 31 2 12-4 18-16 18-13 0-23-7-29-21-3-7-5-14-6-22z" fill="#f19aa2"/>

    <!-- Eyes -->
    <ellipse cx="204" cy="176" rx="32" ry="20" fill="#262628"/>
    <ellipse cx="308" cy="176" rx="32" ry="20" fill="#262628"/>
    <ellipse cx="214" cy="174" rx="9" ry="7" fill="#f0c34c"/>
    <ellipse cx="298" cy="174" rx="9" ry="7" fill="#f0c34c"/>
    <ellipse cx="216" cy="172" rx="4" ry="3" fill="#ffffff" opacity="0.8"/>
    <ellipse cx="296" cy="172" rx="4" ry="3" fill="#ffffff" opacity="0.8"/>

    <!-- Nose -->
    <path d="M240 200c7-9 25-9 32 0 2 3 2 6-1 8-9 6-21 6-30 0-3-2-4-5-1-8z" fill="#f19aa2" stroke="#262628" stroke-width="4" stroke-linejoin="round"/>

    <!-- Mouth -->
    <path d="M172 220c-6 0-10-4-10-10 0-7 5-12 12-12 4 0 8 1 11 3 7 4 14 4 22 0 3-2 7-3 11-3 7 0 12 5 12 12 0 6-4 10-10 10-4 0-7-1-10-3-10-6-20-6-30 0-3 2-6 3-8 3z" fill="#ffffff"/>
    <path d="M238 220c-6 0-10-4-10-10 0-7 5-12 12-12 4 0 8 1 11 3 7 4 14 4 22 0 3-2 7-3 11-3 7 0 12 5 12 12 0 6-4 10-10 10-4 0-7-1-10-3-10-6-20-6-30 0-3 2-6 3-8 3z" fill="#ffffff"/>

    <!-- Big open mouth -->
    <path d="M150 252c0-54 44-98 98-98h16c54 0 98 44 98 98v36c0 74-60 134-134 134s-134-60-134-134v-36z" fill="#5c3a3d" stroke="#262628" stroke-width="8" stroke-linejoin="round"/>
    <path d="M166 272c0-43 35-78 78-78h24c43 0 78 35 78 78v18c0 59-48 106-106 106s-106-48-106-106v-18z" fill="#c96a73"/>

    <!-- Teeth -->
    <path d="M220 206l-10 28c-2 6 1 10 6 10h12c5 0 8-4 6-10l-10-28z" fill="#ffffff" stroke="#262628" stroke-width="4" stroke-linejoin="round"/>
    <path d="M292 206l-10 28c-2 6 1 10 6 10h12c5 0 8-4 6-10l-10-28z" fill="#ffffff" stroke="#262628" stroke-width="4" stroke-linejoin="round"/>

    <!-- Whiskers -->
    <path d="M106 214c30-8 60-8 90 0" stroke="#262628" stroke-width="6" stroke-linecap="round" opacity="0.8"/>
    <path d="M108 242c28 0 56 4 84 12" stroke="#262628" stroke-width="6" stroke-linecap="round" opacity="0.8"/>
    <path d="M406 214c-30-8-60-8-90 0" stroke="#262628" stroke-width="6" stroke-linecap="round" opacity="0.8"/>
    <path d="M404 242c-28 0-56 4-84 12" stroke="#262628" stroke-width="6" stroke-linecap="round" opacity="0.8"/>
  </g>
</svg>
